# xmcd
#
# Track frame offsets:
#	150
#	13612
#	33345
#	57293
#	67759
#	88176
#	102017
#	115587
#	130836
#	146399
#	166577
#	178047
#
# Disc length: 2543 seconds
#
# Revision: 0
# Processed by: cddbd v1.5.2PL0 Copyright (c) Steve Scherf et al.
# Submitted via: dBpowerAMP V4.0
#
DISCID=8d09ed0c
DTITLE=Patty Booker - Fire and Brimstone
DYEAR=2007
DGENRE=Country
TTITLE0=The Hell That I`ve Been Through
TTITLE1=Don`t Go Back to Sleep
TTITLE2=Please Don`t Lie to Me
TTITLE3=Momma Knows
TTITLE4=It`s Been Nice Knowing You
TTITLE5=The One-Way Hula
TTITLE6=Tomorrow Never Comes
TTITLE7=If I Believed in God
TTITLE8=Wake Up Little Baby
TTITLE9=The Hand That Rocked His Cradle
TTITLE10=This Photograph
TTITLE11=Who Would I Be
EXTD=
EXTT0=
EXTT1=
EXTT2=
EXTT3=
EXTT4=
EXTT5=
EXTT6=
EXTT7=
EXTT8=
EXTT9=
EXTT10=
EXTT11=
PLAYORDER=
